<?xml version="1.0" encoding="UTF-8" standalone="no"?><!DOCTYPE svg PUBLIC "-//W3C//DTD SVG 1.1//EN" "http://www.w3.org/Graphics/SVG/1.1/DTD/svg11.dtd"><svg width="100%" height="100%" viewBox="0 0 120 120" version="1.1" xmlns="http://www.w3.org/2000/svg" xmlns:xlink="http://www.w3.org/1999/xlink" xml:space="preserve" xmlns:serif="http://www.serif.com/" style="fill-rule:evenodd;clip-rule:evenodd;stroke-linejoin:round;stroke-miterlimit:2;"><rect id="Icon" x="-0" y="0" width="120" height="120" style="fill:none;"/><g id="g12"><g id="g14"><g id="g16"><g id="g22"><path id="path24" d="M69.932,101.42c-2.256,5.936 -8.21,9.177 -13.293,7.244c-5.085,-1.928 -7.378,-8.308 -5.125,-14.24c2.254,-5.934 8.207,-9.179 13.291,-7.245c5.085,1.932 7.381,8.307 5.127,14.241m-18.107,-27.713c-2.164,5.694 -3.962,11.655 -6.21,17.833c-0.077,0.184 -0.168,0.359 -0.24,0.551c-0.15,0.396 -0.269,0.795 -0.392,1.194c-0.041,0.106 -0.073,0.208 -0.114,0.313c0.004,0 0.006,-0.001 0.01,-0.001c-2.596,8.887 1.406,18.158 9.429,21.208c8.475,3.22 18.22,-1.725 21.761,-11.05c3.543,-9.327 -0.457,-19.495 -8.931,-22.716c-0.294,-0.113 -0.595,-0.192 -0.893,-0.282c-2.873,-4.559 -0.223,-7.436 -0.223,-7.436c0,0 -11.793,-5.943 -14.197,0.386" style="fill:#dd2e44;fill-rule:nonzero;"/></g><g id="g26"><path id="path28" d="M78.753,7.714c-3.495,-0.972 -8.951,0.551 -9.923,4.05l-17.125,62.265c3.07,1.166 10.082,1.199 14.318,-0.706l12.73,-65.609Z" style="fill:#99aab5;fill-rule:nonzero;"/></g><g id="g30"><path id="path32" d="M19.527,51.015c5.935,-2.253 12.309,0.042 14.243,5.129c1.932,5.081 -1.314,11.034 -7.25,13.287c-5.928,2.256 -12.307,-0.037 -14.237,-5.124c-1.934,-5.083 1.31,-11.034 7.244,-13.292m-13.383,15.626c3.047,8.021 12.319,12.023 21.206,9.427l0,0.011c0.106,-0.04 0.209,-0.075 0.317,-0.117c0.397,-0.121 0.795,-0.238 1.189,-0.39c0.19,-0.071 0.364,-0.161 0.551,-0.24c6.179,-2.247 12.14,-4.044 17.834,-6.208c6.328,-2.407 0.384,-14.2 0.384,-14.2c0,0 -2.878,2.652 -7.434,-0.22c-0.092,-0.3 -0.17,-0.598 -0.284,-0.895c-3.22,-8.475 -13.387,-12.473 -22.716,-8.932c-9.323,3.543 -14.268,13.289 -11.047,21.764" style="fill:#dd2e44;fill-rule:nonzero;"/></g><g id="g34"><path id="path36" d="M113.234,42.195c0.972,3.495 -0.551,8.95 -4.05,9.922l-62.266,17.126c-1.165,-3.071 -1.2,-10.084 0.707,-14.318l65.609,-12.73Z" style="fill:#ccd6dd;fill-rule:nonzero;"/></g><g id="g38"><path id="path40" d="M59.439,55.507c1.657,-1.657 4.345,-1.654 5.999,-0c1.659,1.659 1.659,4.344 0.002,6.001c-1.658,1.657 -4.342,1.657 -6.001,-0.002c-1.654,-1.653 -1.658,-4.342 -0,-5.999" style="fill:#99aab5;fill-rule:nonzero;"/></g></g></g></g></svg>